<svg width="32" height="32" viewBox="0 0 32 32" fill="none" xmlns="http://www.w3.org/2000/svg">
<path d="M28 17.4227V25.296C28 26.7893 26.7987 28 25.316 28H6.684C5.20133 28 4 26.7893 4 25.296V8.03733C4 6.544 5.20133 5.33333 6.684 5.33333H16" stroke="currentColor" stroke-width="2" stroke-linecap="round" stroke-linejoin="round"/>
<path d="M10.4375 22.896L15.4122 21.652C15.6468 21.5933 15.8602 21.472 16.0322 21.3013L27.2188 10.1147C28.2602 9.07333 28.2602 7.38533 27.2188 6.344L26.9895 6.11467C25.9482 5.07333 24.2602 5.07333 23.2188 6.11467L12.0322 17.3013C11.8615 17.472 11.7402 17.6867 11.6815 17.9213L10.4375 22.896" stroke="currentColor" stroke-width="2" stroke-linecap="round" stroke-linejoin="round"/>
<path d="M21.1074 8.22667L25.1074 12.2267" stroke="currentColor" stroke-width="2" stroke-linecap="round" stroke-linejoin="round"/>
<path d="M15.3944 21.656C15.4131 21.5147 15.4371 21.3747 15.4371 21.228C15.4371 19.3867 13.9451 17.8947 12.1038 17.8947C11.9571 17.8947 11.8171 17.92 11.6758 17.9373" stroke="currentColor" stroke-width="2" stroke-linecap="round" stroke-linejoin="round"/>
</svg>
