<svg width="32" height="32" viewBox="0 0 32 32" fill="none" xmlns="http://www.w3.org/2000/svg">
<path fill-rule="evenodd" clip-rule="evenodd" d="M26.667 25.3334H5.33366C3.86033 25.3334 2.66699 24.14 2.66699 22.6667V9.33335C2.66699 7.86002 3.86033 6.66669 5.33366 6.66669H26.667C28.1403 6.66669 29.3337 7.86002 29.3337 9.33335V22.6667C29.3337 24.14 28.1403 25.3334 26.667 25.3334Z" stroke="currentColor" stroke-width="1.5" stroke-linecap="round" stroke-linejoin="round"/>
<path d="M18.3573 13.6429C19.6591 14.9447 19.6591 17.0552 18.3573 18.357C17.0556 19.6587 14.945 19.6587 13.6433 18.357C12.3416 17.0552 12.3416 14.9447 13.6433 13.6429C14.9451 12.3412 17.0556 12.3412 18.3573 13.6429" stroke="currentColor" stroke-width="1.5" stroke-linecap="round" stroke-linejoin="round"/>
<path d="M7.99967 12.6667V19.3334" stroke="currentColor" stroke-width="1.5" stroke-linecap="round" stroke-linejoin="round"/>
<path d="M23.9997 12.6667V19.3334" stroke="currentColor" stroke-width="1.5" stroke-linecap="round" stroke-linejoin="round"/>
</svg>
