<svg width="32" height="32" viewBox="0 0 32 32" fill="none" xmlns="http://www.w3.org/2000/svg">
<path fill-rule="evenodd" clip-rule="evenodd" d="M24.7093 12H7.29059C6.53326 12 5.91992 11.3867 5.91992 10.6307V9.36933C5.91992 8.61333 6.53326 8 7.29059 8H24.7106C25.4666 8 26.0799 8.61333 26.0799 9.36933V10.6293C26.0799 11.3867 25.4666 12 24.7093 12V12Z" stroke="currentColor" stroke-width="2" stroke-linecap="round" stroke-linejoin="round"/>
<path d="M24 12L22.8707 25.5547C22.7547 26.9373 21.6 28 20.2133 28H11.7867C10.4 28 9.244 26.9373 9.12933 25.5547L8 12" stroke="currentColor" stroke-width="2" stroke-linecap="round" stroke-linejoin="round"/>
<path d="M10.668 8L12.3 4.73733C12.5253 4.28533 12.9866 4 13.492 4H18.5106C19.016 4 19.4773 4.28533 19.7026 4.73733L21.3346 8" stroke="currentColor" stroke-width="2" stroke-linecap="round" stroke-linejoin="round"/>
<path d="M15.9987 16V24" stroke="currentColor" stroke-width="2" stroke-linecap="round" stroke-linejoin="round"/>
<path d="M19.9986 16L19.4519 24" stroke="currentColor" stroke-width="2" stroke-linecap="round" stroke-linejoin="round"/>
<path d="M12.0008 16L12.5474 24" stroke="currentColor" stroke-width="2" stroke-linecap="round" stroke-linejoin="round"/>
</svg>
